<svg version="1.1" id="Layer_1" xmlns="http://www.w3.org/2000/svg" xmlns:xlink="http://www.w3.org/1999/xlink" x="0px" y="0px"
	 width="100%" viewBox="0 0 75 134" enable-background="new 0 0 75 134" xml:space="preserve">
<path fill="#FEFEFE" opacity="1.000000" stroke="none" 
	d="
M5.000000,135.000000 
	C3.668249,135.000000 2.336499,135.000000 1.003561,135.000000 
	C1.002374,90.387939 1.002374,45.775879 1.002374,1.081909 
	C25.915499,1.081909 50.831322,1.081909 75.873581,1.081909 
	C75.873581,45.666424 75.873581,90.333160 75.873581,135.000000 
	C68.920868,135.000000 61.929214,135.000000 54.655899,134.695831 
	C65.389450,130.566818 69.539627,125.459534 69.730675,113.301666 
	C70.057945,92.474632 70.103951,71.633629 69.724121,50.808403 
	C69.473595,37.072506 65.310387,31.892189 52.685722,30.659027 
	C42.302738,29.644831 31.669346,29.695642 21.277620,30.669270 
	C9.693005,31.754662 5.183223,37.579746 5.023499,49.398701 
	C4.841118,62.894180 4.808522,76.396408 5.019867,89.890854 
	C5.164656,99.135605 10.369345,105.839737 19.448793,106.895584 
	C28.986616,108.004730 38.702137,107.595444 48.340652,107.822311 
	C50.752647,107.879082 53.167118,107.830795 55.507992,107.830795 
	C56.182343,117.870804 52.829613,121.691971 43.664776,121.824219 
	C33.834026,121.966080 23.999653,121.857040 14.166861,121.857430 
	C11.232028,121.857552 8.297194,121.857468 5.000000,121.857468 
	C5.000000,126.742096 5.000000,130.871048 5.000000,135.000000 
z"/>
<path fill="#D0BE99" opacity="1.000000" stroke="none" 
	d="
M5.468657,135.000000 
	C5.000000,130.871048 5.000000,126.742096 5.000000,121.857468 
	C8.297194,121.857468 11.232028,121.857552 14.166861,121.857430 
	C23.999653,121.857040 33.834026,121.966080 43.664776,121.824219 
	C52.829613,121.691971 56.182343,117.870804 55.507992,107.830795 
	C53.167118,107.830795 50.752647,107.879082 48.340652,107.822311 
	C38.702137,107.595444 28.986616,108.004730 19.448793,106.895584 
	C10.369345,105.839737 5.164656,99.135605 5.019867,89.890854 
	C4.808522,76.396408 4.841118,62.894180 5.023499,49.398701 
	C5.183223,37.579746 9.693005,31.754662 21.277620,30.669270 
	C31.669346,29.695642 42.302738,29.644831 52.685722,30.659027 
	C65.310387,31.892189 69.473595,37.072506 69.724121,50.808403 
	C70.103951,71.633629 70.057945,92.474632 69.730675,113.301666 
	C69.539627,125.459534 65.389450,130.566818 54.187119,134.695831 
	C37.979103,135.000000 21.958210,135.000000 5.468657,135.000000 
M25.365267,93.647179 
	C34.328373,93.779083 43.291344,93.921150 52.254658,94.037384 
	C55.400578,94.078178 56.059406,92.114197 56.049099,89.428246 
	C56.003811,77.627815 56.136787,65.825760 55.987854,54.027039 
	C55.907551,47.665440 52.386837,44.171738 46.048912,43.992771 
	C39.738129,43.814564 33.414288,43.814156 27.103916,43.999470 
	C22.409384,44.137329 18.944798,46.369781 18.818909,51.442371 
	C18.539595,62.697018 18.443180,73.961212 18.569994,85.218155 
	C18.613230,89.056053 20.236908,92.366982 25.365267,93.647179 
z"/>
<path fill="#FFFEFE" opacity="1.000000" stroke="none" 
	d="
M24.973064,93.492264 
	C20.236908,92.366982 18.613230,89.056053 18.569994,85.218155 
	C18.443180,73.961212 18.539595,62.697018 18.818909,51.442371 
	C18.944798,46.369781 22.409384,44.137329 27.103916,43.999470 
	C33.414288,43.814156 39.738129,43.814564 46.048912,43.992771 
	C52.386837,44.171738 55.907551,47.665440 55.987854,54.027039 
	C56.136787,65.825760 56.003811,77.627815 56.049099,89.428246 
	C56.059406,92.114197 55.400578,94.078178 52.254658,94.037384 
	C43.291344,93.921150 34.328373,93.779083 24.973064,93.492264 
z"/>
</svg>